<mxfile host="app.diagrams.net" agent="Mozilla/5.0 (Windows NT 10.0; Win64; x64) AppleWebKit/537.36 (KHTML, like Gecko) Chrome/122.0.0.0 Safari/537.36" version="26.2.14">
  <diagram name="1 oldal" id="ohfmbEw8cCkdrReCNdVJ">
    <mxGraphModel dx="6407" dy="3672" grid="1" gridSize="10" guides="1" tooltips="1" connect="1" arrows="1" fold="1" page="1" pageScale="1" pageWidth="827" pageHeight="1169" math="0" shadow="0">
      <root>
        <mxCell id="0" />
        <mxCell id="1" parent="0" />
        <mxCell id="ecLFSbvW6iDAmhPW75aN-837" value="" style="rounded=0;whiteSpace=wrap;html=1;" vertex="1" parent="1">
          <mxGeometry x="-1470" y="-270" width="1080" height="740" as="geometry" />
        </mxCell>
        <mxCell id="ecLFSbvW6iDAmhPW75aN-838" value="" style="rounded=0;whiteSpace=wrap;html=1;" vertex="1" parent="1">
          <mxGeometry x="-1470" y="-270" width="1080" height="120" as="geometry" />
        </mxCell>
        <mxCell id="ecLFSbvW6iDAmhPW75aN-841" value="" style="rounded=0;whiteSpace=wrap;html=1;" vertex="1" parent="1">
          <mxGeometry x="-490" y="-270" width="100" height="120" as="geometry" />
        </mxCell>
        <mxCell id="ecLFSbvW6iDAmhPW75aN-842" value="" style="rounded=0;whiteSpace=wrap;html=1;" vertex="1" parent="1">
          <mxGeometry x="-1360" y="-240" width="120" height="60" as="geometry" />
        </mxCell>
        <mxCell id="ecLFSbvW6iDAmhPW75aN-843" value="" style="rounded=0;whiteSpace=wrap;html=1;" vertex="1" parent="1">
          <mxGeometry x="-1210" y="-240" width="120" height="60" as="geometry" />
        </mxCell>
        <mxCell id="ecLFSbvW6iDAmhPW75aN-844" value="" style="rounded=0;whiteSpace=wrap;html=1;" vertex="1" parent="1">
          <mxGeometry x="-1060" y="-240" width="120" height="60" as="geometry" />
        </mxCell>
        <mxCell id="ecLFSbvW6iDAmhPW75aN-845" value="" style="rounded=0;whiteSpace=wrap;html=1;" vertex="1" parent="1">
          <mxGeometry x="-1400" y="-150" width="940" height="580" as="geometry" />
        </mxCell>
        <mxCell id="ecLFSbvW6iDAmhPW75aN-846" value="Kezdőlap" style="text;html=1;align=center;verticalAlign=middle;whiteSpace=wrap;rounded=0;" vertex="1" parent="1">
          <mxGeometry x="-1360" y="-240" width="120" height="60" as="geometry" />
        </mxCell>
        <mxCell id="ecLFSbvW6iDAmhPW75aN-847" value="" style="rounded=0;whiteSpace=wrap;html=1;" vertex="1" parent="1">
          <mxGeometry x="-1450" y="-240" width="60" height="60" as="geometry" />
        </mxCell>
        <mxCell id="ecLFSbvW6iDAmhPW75aN-848" value="&lt;div&gt;Logo&lt;/div&gt;" style="text;html=1;align=center;verticalAlign=middle;whiteSpace=wrap;rounded=0;" vertex="1" parent="1">
          <mxGeometry x="-1450" y="-240" width="60" height="60" as="geometry" />
        </mxCell>
        <mxCell id="ecLFSbvW6iDAmhPW75aN-849" value="Admin Zenék" style="text;html=1;align=center;verticalAlign=middle;whiteSpace=wrap;rounded=0;" vertex="1" parent="1">
          <mxGeometry x="-1210" y="-240" width="120" height="60" as="geometry" />
        </mxCell>
        <mxCell id="ecLFSbvW6iDAmhPW75aN-850" value="Admin Filmek/Sorozatok" style="text;html=1;align=center;verticalAlign=middle;whiteSpace=wrap;rounded=0;" vertex="1" parent="1">
          <mxGeometry x="-1060" y="-240" width="120" height="60" as="geometry" />
        </mxCell>
        <mxCell id="ecLFSbvW6iDAmhPW75aN-852" value="margin" style="text;html=1;align=center;verticalAlign=middle;whiteSpace=wrap;rounded=0;" vertex="1" parent="1">
          <mxGeometry x="-1470" y="-150" width="70" height="340" as="geometry" />
        </mxCell>
        <mxCell id="ecLFSbvW6iDAmhPW75aN-853" value="margin" style="text;html=1;align=center;verticalAlign=middle;whiteSpace=wrap;rounded=0;" vertex="1" parent="1">
          <mxGeometry x="-460" y="-150" width="70" height="340" as="geometry" />
        </mxCell>
        <mxCell id="ecLFSbvW6iDAmhPW75aN-854" value="ADMIN" style="rounded=0;whiteSpace=wrap;html=1;" vertex="1" parent="1">
          <mxGeometry x="-485" y="-230" width="90" height="40" as="geometry" />
        </mxCell>
        <mxCell id="ecLFSbvW6iDAmhPW75aN-855" value="Admin profilok" style="rounded=0;whiteSpace=wrap;html=1;" vertex="1" parent="1">
          <mxGeometry x="-690" y="-240" width="150" height="60" as="geometry" />
        </mxCell>
        <mxCell id="ecLFSbvW6iDAmhPW75aN-858" value="Admin foglalások" style="rounded=0;whiteSpace=wrap;html=1;" vertex="1" parent="1">
          <mxGeometry x="-910" y="-240" width="170" height="60" as="geometry" />
        </mxCell>
        <mxCell id="ecLFSbvW6iDAmhPW75aN-980" value="Footer" style="rounded=0;whiteSpace=wrap;html=1;" vertex="1" parent="1">
          <mxGeometry x="-1470" y="440" width="1080" height="30" as="geometry" />
        </mxCell>
        <mxCell id="ecLFSbvW6iDAmhPW75aN-1006" value="" style="group" vertex="1" connectable="0" parent="1">
          <mxGeometry x="-1350" y="-60" width="350" height="220" as="geometry" />
        </mxCell>
        <mxCell id="ecLFSbvW6iDAmhPW75aN-1001" value="" style="rounded=0;whiteSpace=wrap;html=1;" vertex="1" parent="ecLFSbvW6iDAmhPW75aN-1006">
          <mxGeometry width="350" height="220" as="geometry" />
        </mxCell>
        <mxCell id="ecLFSbvW6iDAmhPW75aN-1002" value="Dávid" style="rounded=0;whiteSpace=wrap;html=1;" vertex="1" parent="ecLFSbvW6iDAmhPW75aN-1006">
          <mxGeometry x="20" y="20" width="120" height="60" as="geometry" />
        </mxCell>
        <mxCell id="ecLFSbvW6iDAmhPW75aN-1003" value="Szabolcs" style="rounded=0;whiteSpace=wrap;html=1;" vertex="1" parent="ecLFSbvW6iDAmhPW75aN-1006">
          <mxGeometry x="180" y="20" width="120" height="60" as="geometry" />
        </mxCell>
        <mxCell id="ecLFSbvW6iDAmhPW75aN-1004" value="davidszabolcs15@gmail.com" style="rounded=0;whiteSpace=wrap;html=1;" vertex="1" parent="ecLFSbvW6iDAmhPW75aN-1006">
          <mxGeometry x="80" y="90" width="170" height="60" as="geometry" />
        </mxCell>
        <mxCell id="ecLFSbvW6iDAmhPW75aN-1005" value="Törlés" style="rounded=0;whiteSpace=wrap;html=1;" vertex="1" parent="ecLFSbvW6iDAmhPW75aN-1006">
          <mxGeometry x="110" y="160" width="120" height="60" as="geometry" />
        </mxCell>
        <mxCell id="ecLFSbvW6iDAmhPW75aN-1007" value="" style="group" vertex="1" connectable="0" parent="1">
          <mxGeometry x="-930" y="-60" width="350" height="220" as="geometry" />
        </mxCell>
        <mxCell id="ecLFSbvW6iDAmhPW75aN-1008" value="" style="rounded=0;whiteSpace=wrap;html=1;" vertex="1" parent="ecLFSbvW6iDAmhPW75aN-1007">
          <mxGeometry width="350" height="220" as="geometry" />
        </mxCell>
        <mxCell id="ecLFSbvW6iDAmhPW75aN-1009" value="Kocsis" style="rounded=0;whiteSpace=wrap;html=1;" vertex="1" parent="ecLFSbvW6iDAmhPW75aN-1007">
          <mxGeometry x="20" y="20" width="120" height="60" as="geometry" />
        </mxCell>
        <mxCell id="ecLFSbvW6iDAmhPW75aN-1010" value="András" style="rounded=0;whiteSpace=wrap;html=1;" vertex="1" parent="ecLFSbvW6iDAmhPW75aN-1007">
          <mxGeometry x="180" y="20" width="120" height="60" as="geometry" />
        </mxCell>
        <mxCell id="ecLFSbvW6iDAmhPW75aN-1011" value="valami@gmail.com" style="rounded=0;whiteSpace=wrap;html=1;" vertex="1" parent="ecLFSbvW6iDAmhPW75aN-1007">
          <mxGeometry x="80" y="90" width="170" height="60" as="geometry" />
        </mxCell>
        <mxCell id="ecLFSbvW6iDAmhPW75aN-1012" value="Törlés" style="rounded=0;whiteSpace=wrap;html=1;" vertex="1" parent="ecLFSbvW6iDAmhPW75aN-1007">
          <mxGeometry x="110" y="160" width="120" height="60" as="geometry" />
        </mxCell>
        <mxCell id="ecLFSbvW6iDAmhPW75aN-1013" value="" style="group" vertex="1" connectable="0" parent="1">
          <mxGeometry x="-1350" y="190" width="350" height="220" as="geometry" />
        </mxCell>
        <mxCell id="ecLFSbvW6iDAmhPW75aN-1014" value="" style="rounded=0;whiteSpace=wrap;html=1;" vertex="1" parent="ecLFSbvW6iDAmhPW75aN-1013">
          <mxGeometry width="350" height="220" as="geometry" />
        </mxCell>
        <mxCell id="ecLFSbvW6iDAmhPW75aN-1015" value="Németh" style="rounded=0;whiteSpace=wrap;html=1;" vertex="1" parent="ecLFSbvW6iDAmhPW75aN-1013">
          <mxGeometry x="20" y="20" width="120" height="60" as="geometry" />
        </mxCell>
        <mxCell id="ecLFSbvW6iDAmhPW75aN-1016" value="József" style="rounded=0;whiteSpace=wrap;html=1;" vertex="1" parent="ecLFSbvW6iDAmhPW75aN-1013">
          <mxGeometry x="180" y="20" width="120" height="60" as="geometry" />
        </mxCell>
        <mxCell id="ecLFSbvW6iDAmhPW75aN-1017" value="njozsefvalami@gmail.com" style="rounded=0;whiteSpace=wrap;html=1;" vertex="1" parent="ecLFSbvW6iDAmhPW75aN-1013">
          <mxGeometry x="80" y="90" width="170" height="60" as="geometry" />
        </mxCell>
        <mxCell id="ecLFSbvW6iDAmhPW75aN-1018" value="Törlés" style="rounded=0;whiteSpace=wrap;html=1;" vertex="1" parent="ecLFSbvW6iDAmhPW75aN-1013">
          <mxGeometry x="110" y="160" width="120" height="60" as="geometry" />
        </mxCell>
      </root>
    </mxGraphModel>
  </diagram>
</mxfile>
